<?xml version="1.0" standalone="no"?>
<!DOCTYPE svg PUBLIC "-//W3C//DTD SVG 20010904//EN"
 "http://www.w3.org/TR/2001/REC-SVG-20010904/DTD/svg10.dtd">
<svg version="1.0" xmlns="http://www.w3.org/2000/svg"
 width="800.000000pt" height="480.000000pt" viewBox="0 0 800.000000 480.000000"
 preserveAspectRatio="xMidYMid meet">
<metadata>
Created by potrace 1.16, written by Peter Selinger 2001-2019
</metadata>
<g transform="translate(0.000000,480.000000) scale(0.100000,-0.100000)"
fill="#000000" stroke="none">
<path d="M0 2400 l0 -2400 4000 0 4000 0 0 2400 0 2400 -4000 0 -4000 0 0
-2400z m3818 602 l2 -213 33 25 c126 96 307 87 395 -20 57 -68 62 -106 62
-421 l0 -284 -92 3 -93 3 -5 280 c-4 245 -7 284 -22 308 -27 39 -54 50 -122
45 -49 -3 -71 -10 -109 -36 l-47 -33 0 -284 0 -285 -95 0 -95 0 0 554 0 554
63 10 c34 5 76 9 92 8 l30 -1 3 -213z m2300 -24 l3 -118 89 0 90 0 0 -75 0
-75 -90 0 -90 0 0 -222 c0 -192 2 -224 17 -240 19 -21 53 -23 100 -6 40 15 46
9 67 -60 l15 -53 -35 -15 c-148 -62 -286 -28 -335 81 -16 35 -19 69 -19 278
l0 237 -74 0 -74 0 17 62 c18 65 26 72 92 83 l36 5 19 113 19 112 40 6 c22 4
56 6 75 5 l35 -1 3 -117z m-3968 -178 l0 -80 -232 2 -233 3 -3 78 -3 77 236 0
235 0 0 -80z m320 0 l0 -81 -77 3 -78 3 -3 64 c-2 35 -1 70 2 77 4 10 27 14
81 14 l75 0 0 -80z m869 48 l54 -26 39 25 c25 17 54 27 81 27 l42 1 3 -60 3
-61 -43 -9 c-38 -9 -43 -13 -40 -35 1 -14 3 -59 4 -100 1 -66 -2 -82 -28 -129
-53 -99 -142 -141 -295 -141 -78 0 -91 -3 -109 -22 -25 -27 -25 -43 -1 -67 15
-15 40 -20 142 -25 167 -9 240 -23 292 -56 59 -37 81 -85 74 -162 -15 -166
-166 -262 -412 -262 -133 -1 -204 21 -261 78 -86 86 -80 198 15 278 l39 32
-29 34 c-23 26 -29 42 -29 80 0 52 26 104 60 122 20 11 19 13 -23 60 -24 26
-49 66 -55 88 -15 50 -15 133 0 183 21 72 97 140 188 170 14 5 72 7 130 6 91
-2 113 -6 159 -29z m1613 -6 c112 -55 176 -147 199 -290 22 -133 -19 -280
-102 -363 -158 -158 -460 -137 -591 40 -106 144 -95 401 22 534 73 83 165 118
306 114 90 -2 107 -6 166 -35z m741 13 c28 -10 47 -23 47 -32 0 -22 -22 -96
-31 -107 -5 -6 -47 -2 -103 9 -109 20 -157 15 -192 -20 -56 -56 -18 -97 135
-149 122 -42 165 -69 198 -124 26 -41 30 -111 12 -176 -15 -54 -92 -129 -155
-149 -108 -36 -250 -30 -356 15 l-46 20 15 51 c21 75 30 81 84 61 30 -12 77
-17 145 -18 117 -1 144 12 144 69 0 47 -32 70 -150 110 -163 55 -215 101 -226
202 -14 118 54 211 186 254 42 14 240 3 293 -16z m-3223 -365 l0 -80 -395 0
-395 0 0 73 c0 41 3 77 7 80 3 4 181 7 395 7 l388 0 0 -80z m-470 -315 l0 -75
-160 0 -160 0 0 75 0 75 160 0 160 0 0 -75z m470 0 l0 -75 -155 0 -155 0 0 75
0 75 155 0 155 0 0 -75z"/>
<path d="M3093 2735 c-98 -42 -96 -210 2 -251 71 -29 157 -9 199 48 26 36 27
112 1 155 -34 57 -129 80 -202 48z"/>
<path d="M3028 2063 c-55 -58 -45 -129 23 -164 60 -30 189 -27 257 7 76 38
106 109 63 148 -23 21 -120 35 -237 36 -75 0 -82 -2 -106 -27z"/>
<path d="M4702 2727 c-81 -26 -128 -134 -119 -273 6 -97 32 -162 80 -196 27
-19 45 -23 108 -23 67 0 80 3 111 27 54 41 73 100 73 228 0 88 -4 111 -22 145
-48 90 -132 124 -231 92z"/>
</g>
</svg>
