<?xml version="1.0" standalone="no"?>
<!DOCTYPE svg PUBLIC "-//W3C//DTD SVG 20010904//EN"
 "http://www.w3.org/TR/2001/REC-SVG-20010904/DTD/svg10.dtd">
<svg version="1.0" xmlns="http://www.w3.org/2000/svg"
 width="260.000000pt" height="260.000000pt" viewBox="0 0 260.000000 260.000000"
 preserveAspectRatio="xMidYMid meet">
<metadata>
Created by potrace 1.16, written by Peter Selinger 2001-2019
</metadata>
<g transform="translate(0.000000,260.000000) scale(0.100000,-0.100000)"
fill="white" stroke="none">
<path d="M1105 2586 c-294 -49 -534 -174 -737 -382 -176 -181 -290 -397 -345
-654 -25 -119 -25 -381 0 -500 55 -258 163 -462 343 -649 188 -196 402 -315
684 -378 109 -24 386 -24 500 0 275 59 495 181 684 378 180 187 288 391 343
649 25 119 25 382 0 500 -59 274 -181 495 -378 684 -184 177 -390 287 -639
341 -103 22 -353 28 -455 11z m416 -172 c533 -101 919 -569 919 -1114 0 -493
-309 -923 -777 -1080 -88 -29 -252 -60 -320 -60 l-33 0 0 490 0 490 120 0 c66
0 120 3 120 8 0 4 9 65 20 136 11 71 20 139 20 152 l0 24 -140 0 -140 0 0 123
c0 104 3 127 20 155 27 44 54 52 171 52 l99 0 0 160 0 160 -137 0 c-206 0
-292 -23 -374 -97 -85 -77 -118 -195 -119 -420 l0 -133 -95 0 -95 0 0 -160 0
-160 95 0 95 0 0 -460 c0 -253 -2 -460 -5 -460 -16 0 -150 57 -205 87 -143 78
-311 230 -400 362 -62 93 -127 236 -157 348 -24 89 -27 115 -27 283 0 171 2
193 28 285 64 233 204 451 381 594 268 215 600 299 936 235z"/>
</g>
</svg>
