<?xml version="1.0" standalone="no"?>
<!DOCTYPE svg PUBLIC "-//W3C//DTD SVG 20010904//EN"
 "http://www.w3.org/TR/2001/REC-SVG-20010904/DTD/svg10.dtd">
<svg version="1.0" xmlns="http://www.w3.org/2000/svg"
 width="900.000000pt" height="520.000000pt" viewBox="0 0 900.000000 520.000000"
 preserveAspectRatio="xMidYMid meet">
<metadata>
Created by potrace 1.16, written by Peter Selinger 2001-2019
</metadata>
<g transform="translate(0.000000,520.000000) scale(0.100000,-0.100000)"
fill="white" stroke="none">
<path d="M2656 5185 c-16 -9 -35 -23 -42 -33 -11 -14 -13 -467 -14 -2505 0
-2319 1 -2491 17 -2518 9 -15 29 -33 45 -40 67 -28 39 -52 961 836 477 459
871 835 877 835 5 0 396 -372 867 -826 472 -454 872 -833 890 -842 27 -13 39
-13 73 -3 77 23 70 -216 70 2559 l0 2488 -21 23 c-11 12 -32 26 -46 32 -15 5
-731 9 -1836 9 -1599 0 -1815 -2 -1841 -15z m3534 -2472 l0 -2278 -112 111
c-158 155 -1444 1391 -1496 1437 -34 30 -50 37 -82 37 -32 0 -48 -7 -82 -37
-49 -44 -1341 -1285 -1500 -1442 l-108 -106 0 2278 0 2277 1690 0 1690 0 0
-2277z"/>
</g>
</svg>
