<?xml version="1.0" standalone="no"?>
<!DOCTYPE svg PUBLIC "-//W3C//DTD SVG 20010904//EN"
 "http://www.w3.org/TR/2001/REC-SVG-20010904/DTD/svg10.dtd">
<svg version="1.0" xmlns="http://www.w3.org/2000/svg"
 width="900.000000pt" height="520.000000pt" viewBox="0 0 900.000000 520.000000"
 preserveAspectRatio="xMidYMid meet">
<metadata>
Created by potrace 1.16, written by Peter Selinger 2001-2019
</metadata>
<g transform="translate(0.000000,520.000000) scale(0.100000,-0.100000)"
fill="#0EA5E9" stroke="none">
<path d="M2420 2640 l0 -2560 170 0 170 0 0 2560 0 2560 -170 0 -170 0 0
-2560z"/>
<path d="M2910 4435 l0 -515 1835 0 1835 0 0 515 0 515 -1835 0 -1835 0 0
-515z"/>
<path d="M2910 3195 l0 -515 1560 0 1560 0 0 515 0 515 -1560 0 -1560 0 0
-515z"/>
<path d="M2910 2005 l0 -515 1315 0 1315 0 0 515 0 515 -1315 0 -1315 0 0
-515z"/>
<path d="M2910 805 l0 -515 1595 0 1595 0 0 515 0 515 -1595 0 -1595 0 0 -515z"/>
</g>
</svg>
