<?xml version="1.0" standalone="no"?>
<!DOCTYPE svg PUBLIC "-//W3C//DTD SVG 20010904//EN"
 "http://www.w3.org/TR/2001/REC-SVG-20010904/DTD/svg10.dtd">
<svg version="1.0" xmlns="http://www.w3.org/2000/svg"
 width="320.000000pt" height="320.000000pt" viewBox="0 0 320.000000 320.000000"
 preserveAspectRatio="xMidYMid meet">
<metadata>
Created by potrace 1.16, written by Peter Selinger 2001-2019
</metadata>
<g transform="translate(0.000000,320.000000) scale(0.100000,-0.100000)"
fill="#0EA5E9" stroke="none">
<path d="M1360 3156 c-227 -41 -431 -121 -615 -240 -328 -214 -572 -551 -665
-919 -213 -849 284 -1695 1130 -1921 135 -37 278 -50 470 -43 140 5 184 11
287 37 202 51 342 114 515 229 334 223 577 587 665 993 25 118 26 497 1 613
-29 132 -75 262 -143 400 -211 428 -631 747 -1106 840 -115 23 -438 29 -539
11z m511 -236 c262 -54 510 -191 696 -384 148 -153 258 -337 321 -536 47 -148
56 -210 56 -400 0 -188 -11 -267 -60 -416 -112 -344 -379 -647 -709 -804 -98
-46 -244 -93 -345 -111 -94 -16 -352 -17 -446 -1 -495 83 -916 450 -1067 928
-62 196 -78 437 -43 634 106 592 565 1025 1176 1110 95 13 308 3 421 -20z"/>
<path d="M964 2066 c-114 -53 -155 -181 -96 -297 36 -71 92 -111 166 -117 80
-6 117 4 166 45 55 47 79 102 80 176 0 165 -162 265 -316 193z"/>
<path d="M2060 2077 c-48 -15 -113 -83 -128 -133 -46 -154 54 -294 211 -294
68 0 94 9 141 51 157 137 63 392 -141 388 -26 -1 -64 -6 -83 -12z"/>
<path d="M851 1176 c-51 -28 -65 -97 -31 -153 48 -79 287 -217 461 -267 332
-94 679 -41 964 149 90 59 151 120 161 160 14 58 -44 125 -109 125 -34 0 -48
-8 -172 -94 -53 -37 -168 -94 -233 -117 -85 -29 -265 -52 -347 -44 -208 19
-353 77 -545 215 -59 43 -105 51 -149 26z"/>
</g>
</svg>
