<?xml version="1.0" standalone="no"?>
<!DOCTYPE svg PUBLIC "-//W3C//DTD SVG 20010904//EN"
 "http://www.w3.org/TR/2001/REC-SVG-20010904/DTD/svg10.dtd">
<svg version="1.0" xmlns="http://www.w3.org/2000/svg"
 width="840.000000pt" height="936.000000pt" viewBox="0 0 840.000000 936.000000"
 preserveAspectRatio="xMidYMid meet">
<metadata>
Created by potrace 1.16, written by Peter Selinger 2001-2019
</metadata>
<g transform="translate(0.000000,936.000000) scale(0.100000,-0.100000)"
fill="white" stroke="none">
<path d="M3188 8951 c-65 -21 -131 -80 -166 -147 -17 -32 -29 -144 -177 -1624
-30 -305 -58 -570 -61 -587 l-6 -33 -397 0 c-479 0 -1320 -8 -1487 -15 -67 -2
-133 -9 -147 -14 -39 -15 -96 -70 -119 -115 -32 -61 -31 -184 0 -248 26 -52
83 -103 134 -120 22 -7 353 -13 998 -18 531 -4 967 -8 969 -9 2 0 1 -20 -3
-43 -6 -45 -39 -363 -131 -1288 -31 -305 -71 -710 -90 -901 -19 -190 -35 -362
-35 -382 0 -21 -6 -40 -12 -42 -7 -3 -472 -9 -1033 -14 -565 -6 -1036 -14
-1056 -19 -52 -13 -115 -67 -141 -121 -18 -36 -23 -63 -22 -126 0 -89 19 -139
71 -186 71 -66 46 -62 502 -70 229 -4 689 -8 1024 -8 334 -1 607 -3 607 -5 0
-2 -9 -80 -20 -173 -49 -416 -180 -1854 -180 -1977 0 -64 4 -78 30 -118 53
-80 133 -128 214 -128 105 0 219 69 250 153 18 47 58 400 141 1232 67 678 94
939 101 983 l5 32 1066 0 1066 0 -6 -38 c-32 -194 -197 -1985 -197 -2127 0
-68 15 -100 76 -160 74 -72 156 -91 261 -60 65 19 137 82 157 138 23 62 44
255 176 1577 33 333 63 620 66 638 l6 32 557 1 c306 0 759 4 1007 7 416 7 452
9 480 26 93 59 128 121 128 226 0 41 -5 91 -12 111 -13 38 -64 97 -108 125
-40 27 -247 33 -1146 34 -490 0 -849 4 -852 9 -3 5 3 89 14 187 23 219 227
2256 236 2371 4 46 12 87 19 93 8 6 381 13 1036 19 702 6 1036 13 1061 20 59
18 124 89 144 157 20 69 14 156 -15 213 -22 42 -79 96 -120 113 -31 13 -741
26 -1533 27 -291 1 -528 2 -528 4 0 2 11 99 25 217 36 323 141 1437 174 1860
11 136 0 172 -70 240 -65 63 -93 75 -179 75 -62 0 -84 -5 -126 -27 -55 -29
-99 -74 -120 -124 -16 -37 -57 -413 -159 -1429 -41 -412 -77 -765 -80 -782
l-6 -33 -1066 0 -1066 0 6 38 c31 190 197 1987 197 2125 0 93 -45 160 -140
207 -49 25 -147 35 -192 21z m2212 -2933 c0 -2 -7 -68 -15 -148 -24 -224 -211
-2102 -231 -2310 -9 -102 -20 -188 -23 -192 -8 -9 -2117 -16 -2125 -7 -4 3 3
91 14 195 28 266 205 2041 225 2259 9 99 18 186 21 193 3 9 225 12 1069 12
586 0 1065 -1 1065 -2z"/>
</g>
</svg>
