<?xml version="1.0" standalone="no"?>
<!DOCTYPE svg PUBLIC "-//W3C//DTD SVG 20010904//EN"
 "http://www.w3.org/TR/2001/REC-SVG-20010904/DTD/svg10.dtd">
<svg version="1.0" xmlns="http://www.w3.org/2000/svg"
 width="512.000000pt" height="512.000000pt" viewBox="0 0 512.000000 512.000000"
 preserveAspectRatio="xMidYMid meet">
<metadata>
Created by potrace 1.16, written by Peter Selinger 2001-2019
</metadata>
<g transform="translate(0.000000,512.000000) scale(0.100000,-0.100000)"
fill="#64748B" stroke="none">
<path d="M1645 4089 c-220 -22 -418 -119 -571 -282 -160 -170 -238 -354 -251
-592 -11 -206 25 -375 122 -570 169 -340 487 -661 1395 -1408 118 -98 217
-177 220 -177 7 0 56 40 410 334 744 619 1043 929 1204 1248 93 185 120 300
120 513 0 175 -10 238 -64 372 -77 191 -246 376 -430 468 -131 66 -261 96
-421 96 -127 1 -158 -3 -269 -33 -160 -43 -307 -135 -463 -291 l-88 -87 -87
88 c-143 145 -275 231 -431 281 -115 37 -270 53 -396 40z m257 -214 c81 -17
170 -52 245 -96 57 -34 251 -219 356 -339 l57 -65 57 65 c31 36 109 117 173
181 186 186 329 256 545 266 256 12 472 -87 623 -288 92 -123 135 -262 135
-439 -2 -471 -265 -797 -1391 -1723 l-142 -118 -143 118 c-475 392 -665 560
-882 777 -378 379 -507 619 -508 946 0 219 68 387 216 531 87 85 222 158 337
183 85 18 238 19 322 1z"/>
</g>
</svg>
