<?xml version="1.0" standalone="no"?>
<!DOCTYPE svg PUBLIC "-//W3C//DTD SVG 20010904//EN"
 "http://www.w3.org/TR/2001/REC-SVG-20010904/DTD/svg10.dtd">
<svg version="1.0" xmlns="http://www.w3.org/2000/svg"
 width="360.000000pt" height="360.000000pt" viewBox="0 0 360.000000 360.000000"
 preserveAspectRatio="xMidYMid meet">
<metadata>
Created by potrace 1.16, written by Peter Selinger 2001-2019
</metadata>
<g transform="translate(0.000000,360.000000) scale(0.100000,-0.100000)"
fill="#0EA5E9" stroke="none">
<path d="M600 1800 l0 -900 1200 0 1200 0 0 900 0 900 -1200 0 -1200 0 0 -900z
m2290 38 l0 -743 -34 35 c-18 19 -161 170 -316 335 -445 472 -469 495 -500
495 -23 0 -55 -33 -211 -216 -101 -119 -193 -228 -205 -241 l-20 -26 -133 87
c-137 89 -183 116 -200 116 -5 0 -131 -99 -280 -220 -149 -121 -273 -220 -276
-220 -3 0 -5 301 -5 670 l0 670 1090 0 1090 0 0 -742z m-416 -467 c174 -184
316 -338 316 -343 0 -4 -466 -8 -1035 -8 l-1035 0 0 38 c0 37 3 40 277 262
152 124 279 226 282 228 3 1 76 -43 161 -98 146 -94 181 -110 205 -92 6 4 98
110 205 235 l193 229 58 -59 c31 -32 200 -208 373 -392z"/>
<path d="M1115 2277 c-43 -20 -93 -80 -101 -122 -14 -74 26 -159 89 -188 116
-56 252 24 251 147 0 62 -22 106 -70 142 -42 33 -122 42 -169 21z"/>
</g>
</svg>
