<?xml version="1.0" standalone="no"?>
<!DOCTYPE svg PUBLIC "-//W3C//DTD SVG 20010904//EN"
 "http://www.w3.org/TR/2001/REC-SVG-20010904/DTD/svg10.dtd">
<svg version="1.0" xmlns="http://www.w3.org/2000/svg"
 width="840.000000pt" height="402.000000pt" viewBox="0 0 840.000000 402.000000"
 preserveAspectRatio="xMidYMid meet">
<metadata>
Created by potrace 1.16, written by Peter Selinger 2001-2019
</metadata>
<g transform="translate(0.000000,402.000000) scale(0.100000,-0.100000)"
fill="white" stroke="none">
<path d="M1788 3598 c-59 -8 -94 -32 -119 -79 -19 -38 -19 -68 -19 -1515 l0
-1477 21 -37 c12 -21 38 -47 59 -59 l38 -21 2437 0 2437 0 38 21 c21 12 47 38
59 59 l21 38 -2 1489 -3 1488 -23 33 c-48 67 164 62 -2490 64 -1325 2 -2429 0
-2454 -4z m4352 -332 c-8 -7 -91 -74 -185 -148 -93 -74 -522 -414 -953 -756
-431 -342 -788 -622 -793 -622 -6 0 -55 35 -108 78 -54 42 -248 196 -432 342
-184 145 -572 453 -864 684 -291 230 -534 423 -539 427 -6 5 867 9 1939 9
1637 0 1947 -2 1935 -14z m-4008 -298 c85 -68 283 -224 439 -348 156 -123 545
-431 864 -684 319 -252 601 -476 627 -498 67 -54 96 -68 149 -68 32 0 57 7 81
23 19 13 230 179 468 368 239 190 656 520 925 734 270 214 544 432 610 485 66
53 126 99 133 103 9 7 12 -230 12 -1172 l0 -1181 -2235 0 -2235 0 0 1180 c0
649 1 1180 3 1180 2 0 73 -55 159 -122z"/>
</g>
</svg>
