<?xml version="1.0" standalone="no"?>
<!DOCTYPE svg PUBLIC "-//W3C//DTD SVG 20010904//EN"
 "http://www.w3.org/TR/2001/REC-SVG-20010904/DTD/svg10.dtd">
<svg version="1.0" xmlns="http://www.w3.org/2000/svg"
 width="512.000000pt" height="512.000000pt" viewBox="0 0 512.000000 512.000000"
 preserveAspectRatio="xMidYMid meet">
<metadata>
Created by potrace 1.16, written by Peter Selinger 2001-2019
</metadata>
<g transform="translate(0.000000,512.000000) scale(0.100000,-0.100000)"
fill="white" stroke="none">
<path d="M2255 5108 c-105 -12 -298 -51 -409 -83 -994 -288 -1724 -1155 -1835
-2177 -14 -125 -14 -451 0 -576 128 -1180 1081 -2133 2261 -2261 125 -14 451
-14 576 0 1179 128 2133 1082 2261 2261 14 125 14 451 0 576 -128 1180 -1081
2133 -2261 2261 -115 13 -479 12 -593 -1z m680 -257 c856 -151 1543 -732 1820
-1541 414 -1209 -234 -2530 -1445 -2945 -1271 -435 -2646 302 -2994 1604 -57
211 -70 327 -70 591 0 264 13 378 69 591 235 889 989 1567 1895 1703 158 24
169 24 395 21 158 -2 240 -8 330 -24z"/>
<path d="M1043 3015 c-210 -57 -347 -237 -347 -455 0 -251 184 -450 434 -467
138 -10 268 37 362 131 188 188 186 492 -3 675 -116 111 -293 157 -446 116z"/>
<path d="M2441 3014 c-291 -78 -434 -399 -299 -668 97 -192 324 -295 533 -241
253 66 405 321 340 570 -67 254 -324 406 -574 339z"/>
<path d="M3831 3015 c-130 -37 -235 -125 -298 -251 -38 -78 -38 -78 -38 -204
0 -125 0 -126 38 -202 102 -207 322 -310 542 -253 154 40 272 150 327 303 30
84 29 215 -1 305 -43 128 -151 239 -280 288 -74 28 -215 35 -290 14z"/>
</g>
</svg>
