<?xml version="1.0" standalone="no"?>
<!DOCTYPE svg PUBLIC "-//W3C//DTD SVG 20010904//EN"
 "http://www.w3.org/TR/2001/REC-SVG-20010904/DTD/svg10.dtd">
<svg version="1.0" xmlns="http://www.w3.org/2000/svg"
 width="320.000000pt" height="359.000000pt" viewBox="0 0 320.000000 359.000000"
 preserveAspectRatio="xMidYMid meet">
<metadata>
Created by potrace 1.16, written by Peter Selinger 2001-2019
</metadata>
<g transform="translate(0.000000,359.000000) scale(0.100000,-0.100000)"
fill="white" stroke="none">
<path d="M1513 3464 c-56 -20 -126 -84 -153 -140 -15 -31 -24 -72 -28 -130 -5
-81 -6 -85 -31 -90 -14 -3 -66 -17 -116 -30 -338 -93 -577 -334 -680 -689 -50
-174 -57 -244 -65 -675 -7 -354 -10 -416 -28 -491 -56 -235 -140 -410 -256
-533 -25 -26 -49 -59 -52 -71 -7 -27 18 -80 41 -89 9 -3 256 -6 549 -6 l533 0
7 -67 c16 -157 113 -279 257 -324 77 -24 141 -24 218 0 144 45 241 167 257
324 l7 67 536 0 c588 0 572 -2 586 59 7 32 -8 69 -36 88 -60 44 -175 242 -222
388 -56 169 -58 193 -67 630 -7 349 -11 428 -29 529 -49 276 -148 475 -313
632 -140 133 -286 205 -519 258 -26 6 -27 10 -34 88 -9 105 -36 168 -92 218
-75 66 -177 86 -270 54z m148 -193 c25 -26 29 -37 29 -85 l0 -56 -90 0 -90 0
0 40 c0 114 83 169 151 101z m89 -366 c364 -23 636 -226 744 -558 51 -155 58
-226 65 -632 l7 -380 41 -155 c45 -169 86 -287 133 -382 17 -33 28 -63 25 -67
-7 -6 -2335 -9 -2335 -3 0 3 29 64 65 136 35 72 76 172 90 221 52 186 57 237
65 655 7 373 9 401 33 500 48 199 119 333 238 445 110 104 211 157 377 197 88
21 254 37 327 32 22 -2 78 -6 125 -9z m30 -2432 c0 -54 -36 -120 -83 -151 -32
-21 -52 -27 -96 -26 -102 0 -171 61 -179 160 l-4 54 181 0 181 0 0 -37z"/>
</g>
</svg>
