<?xml version="1.0" standalone="no"?>
<!DOCTYPE svg PUBLIC "-//W3C//DTD SVG 20010904//EN"
 "http://www.w3.org/TR/2001/REC-SVG-20010904/DTD/svg10.dtd">
<svg version="1.0" xmlns="http://www.w3.org/2000/svg"
 width="500.000000pt" height="500.000000pt" viewBox="0 0 500.000000 500.000000"
 preserveAspectRatio="xMidYMid meet">
<metadata>
Created by potrace 1.16, written by Peter Selinger 2001-2019
</metadata>
<g transform="translate(0.000000,500.000000) scale(0.100000,-0.100000)"
fill="white" stroke="none">
<path d="M677 4970 c-102 -65 -181 -172 -191 -261 -3 -24 -3 -35 0 -24 12 47
26 86 29 83 2 -2 -3 -28 -11 -58 -21 -82 -21 -4338 0 -4420 8 -30 13 -56 11
-58 -3 -3 -16 36 -29 83 -3 11 -3 2 -1 -19 10 -91 90 -201 192 -266 l47 -30
1775 0 1776 0 35 21 c50 31 130 99 130 111 0 6 -10 3 -22 -8 l-23 -19 19 22
c10 12 23 21 28 20 6 -1 13 4 16 12 3 9 0 11 -8 6 -9 -5 -11 -4 -6 4 4 6 12 9
17 5 12 -7 49 77 54 124 3 20 2 28 -1 17 -13 -47 -26 -86 -29 -83 -2 2 3 28
11 58 21 82 21 4338 0 4420 -8 30 -13 56 -11 58 3 3 16 -36 29 -83 3 -11 4 -3
1 17 -5 47 -42 131 -54 124 -5 -4 -13 -1 -17 5 -5 8 -3 9 6 4 8 -5 11 -3 8 6
-3 8 -10 13 -16 12 -5 -1 -18 8 -28 20 l-19 22 23 -19 c12 -11 22 -14 22 -8 0
12 -80 80 -130 111 l-35 21 -1776 0 -1775 0 -47 -30z m3467 -326 c14 -14 16
-222 16 -2144 0 -1922 -2 -2130 -16 -2144 -14 -14 -177 -16 -1644 -16 -1467 0
-1630 2 -1644 16 -14 14 -16 222 -16 2144 0 1922 2 2130 16 2144 14 14 177 16
1644 16 1467 0 1630 -2 1644 -16z"/>
<path d="M1441 3807 c-70 -25 -98 -116 -54 -175 40 -54 15 -53 1134 -50 1036
3 1038 3 1066 24 61 45 61 143 0 188 -28 21 -30 21 -1070 23 -791 2 -1050 -1
-1076 -10z"/>
<path d="M1441 3007 c-70 -25 -98 -116 -54 -175 40 -54 15 -53 1134 -50 1036
3 1038 3 1066 24 61 45 61 143 0 188 -28 21 -30 21 -1070 23 -791 2 -1050 -1
-1076 -10z"/>
<path d="M1441 2207 c-70 -25 -98 -116 -54 -175 40 -54 15 -53 1134 -50 1036
3 1038 3 1066 24 61 45 61 143 0 188 -28 21 -30 21 -1070 23 -791 2 -1050 -1
-1076 -10z"/>
<path d="M1441 1407 c-70 -25 -98 -116 -54 -175 40 -54 15 -53 1134 -50 1036
3 1038 3 1066 24 61 45 61 143 0 188 -28 21 -30 21 -1070 23 -791 2 -1050 -1
-1076 -10z"/>
<path d="M475 2500 c0 -1191 1 -1678 2 -1083 2 596 2 1570 0 2165 -1 596 -2
109 -2 -1082z"/>
<path d="M4525 2500 c0 -1191 1 -1678 2 -1083 2 596 2 1570 0 2165 -1 596 -2
109 -2 -1082z"/>
</g>
</svg>
