<?xml version="1.0" standalone="no"?>
<!DOCTYPE svg PUBLIC "-//W3C//DTD SVG 20010904//EN"
 "http://www.w3.org/TR/2001/REC-SVG-20010904/DTD/svg10.dtd">
<svg version="1.0" xmlns="http://www.w3.org/2000/svg"
 width="840.000000pt" height="934.000000pt" viewBox="0 0 840.000000 934.000000"
 preserveAspectRatio="xMidYMid meet">
<metadata>
Created by potrace 1.16, written by Peter Selinger 2001-2019
</metadata>
<g transform="translate(0.000000,934.000000) scale(0.100000,-0.100000)"
fill="white" stroke="none">
<path d="M3990 8929 c-927 -107 -1705 -830 -2034 -1890 -276 -890 -169 -1919
280 -2700 24 -42 44 -79 44 -82 0 -4 -53 -33 -117 -66 -391 -196 -790 -496
-1078 -810 -463 -503 -746 -1077 -847 -1716 -30 -187 -39 -764 -13 -851 50
-172 179 -309 343 -366 l67 -23 3565 0 c3457 0 3567 1 3620 19 176 60 304 193
355 369 26 89 17 665 -13 852 -103 647 -383 1212 -857 1727 -282 307 -682 606
-1074 803 -61 30 -111 57 -111 59 0 3 30 58 66 124 296 541 443 1201 405 1817
-39 633 -213 1181 -528 1658 -142 215 -363 460 -548 607 -452 359 -1005 529
-1525 469z m401 -805 c381 -64 750 -330 1012 -729 137 -210 272 -537 331 -805
81 -366 81 -797 0 -1155 -146 -652 -514 -1179 -990 -1419 -609 -307 -1289 -72
-1739 600 -142 211 -279 542 -339 814 -78 358 -82 766 -10 1120 118 579 437
1094 845 1366 280 187 588 259 890 208z m-1449 -4601 c235 -179 508 -312 785
-382 290 -73 656 -73 946 0 284 72 568 212 808 399 l101 78 76 -32 c204 -88
430 -214 607 -340 691 -490 1093 -1182 1128 -1943 l4 -83 -3196 0 -3196 0 3
78 c12 322 89 626 237 927 280 574 786 1040 1455 1341 93 42 118 50 132 41 9
-7 58 -44 110 -84z"/>
</g>
</svg>
