<?xml version="1.0" standalone="no"?>
<!DOCTYPE svg PUBLIC "-//W3C//DTD SVG 20010904//EN"
 "http://www.w3.org/TR/2001/REC-SVG-20010904/DTD/svg10.dtd">
<svg version="1.0" xmlns="http://www.w3.org/2000/svg"
 width="400.000000pt" height="400.000000pt" viewBox="0 0 400.000000 400.000000"
 preserveAspectRatio="xMidYMid meet">
<metadata>
Created by potrace 1.16, written by Peter Selinger 2001-2019
</metadata>
<g transform="translate(0.000000,400.000000) scale(0.100000,-0.100000)"
fill="#000000" stroke="none">
<path d="M980 3968 c-14 -16 -31 -35 -37 -43 -7 -7 -13 -18 -13 -24 0 -15 -27
-14 -36 1 -4 6 -2 14 4 16 7 2 12 10 12 18 0 10 -12 14 -39 14 -36 0 -68 -19
-54 -33 3 -4 0 -13 -7 -22 -7 -8 -10 -26 -8 -39 3 -14 2 -25 -1 -24 -3 1 -14
-2 -24 -6 -9 -5 -25 -5 -35 -1 -11 5 -13 9 -4 12 18 7 16 83 -3 83 -12 0 -15
-13 -15 -60 0 -33 -4 -60 -10 -60 -5 0 -18 -10 -29 -21 -16 -17 -28 -21 -58
-17 -35 5 -36 5 -10 -5 41 -16 34 -37 -13 -37 -52 0 -51 -14 3 -27 l42 -11
-52 -1 c-40 -1 -54 3 -62 17 -9 15 -12 15 -21 2 -7 -11 -5 -16 9 -18 18 -3 41
-40 41 -67 0 -8 6 -15 13 -15 12 0 -43 -33 -75 -46 -14 -5 -18 -18 -18 -50 l0
-44 -40 0 c-22 0 -40 -4 -40 -10 0 -5 18 -10 40 -10 40 0 40 0 40 -39 0 -39
-1 -40 -37 -44 -21 -3 -10 -3 25 -1 35 2 62 -1 62 -6 0 -6 -7 -10 -15 -10 -8
0 -15 -5 -15 -11 0 -21 -29 -39 -64 -39 -30 0 -35 3 -38 28 -4 22 -6 24 -12 9
-11 -24 18 -86 30 -65 6 9 30 17 63 20 53 5 53 5 27 -11 -37 -22 -32 -38 14
-46 58 -10 49 -25 -15 -25 l-55 0 0 -40 c0 -29 4 -40 15 -40 11 0 15 -12 15
-50 0 -38 4 -50 15 -50 8 0 15 5 15 10 0 6 18 10 40 10 33 0 40 -3 40 -20 0
-11 -4 -20 -10 -20 -6 0 -10 -27 -10 -60 0 -33 4 -60 10 -60 6 0 10 -9 10 -21
0 -14 5 -19 18 -17 14 3 17 16 20 81 2 48 -1 77 -8 77 -5 0 -10 9 -10 20 0 13
7 20 18 20 14 0 18 -6 15 -27 -3 -16 0 -48 6 -73 7 -30 7 -48 0 -57 -8 -9 -4
-10 19 -3 17 4 33 6 36 2 3 -3 6 6 6 20 0 13 -3 28 -7 31 -9 10 -10 56 -1 51
5 -3 13 -26 19 -50 7 -26 15 -41 19 -34 5 8 9 7 14 -5 3 -9 4 -21 1 -26 -9
-13 24 -117 39 -122 9 -4 12 -24 10 -69 -2 -44 0 -55 6 -38 7 23 10 20 14 -20
2 -25 -25 -50 -55 -50 -28 0 -86 44 -82 61 2 5 -6 9 -17 9 -29 0 -25 -14 15
-49 42 -37 72 -46 125 -37 22 3 40 2 40 -3 0 -5 16 -19 36 -30 30 -18 35 -26
30 -46 -4 -14 -3 -25 2 -25 4 0 16 -15 26 -34 16 -30 17 -40 6 -83 -13 -50 -8
-75 34 -174 8 -20 13 -39 10 -42 -20 -20 -21 -513 -1 -533 5 -6 -2 -28 -24
-79 -20 -45 -84 -287 -94 -358 -6 -37 -11 -47 -23 -42 -12 4 -12 3 -3 -9 8
-10 9 -16 1 -21 -10 -6 -26 3 -136 76 -35 22 -143 59 -176 59 -16 0 55 -36
101 -51 l36 -12 -25 -10 c-128 -53 -211 -103 -247 -147 -7 -8 -12 -28 -10 -45
2 -24 -2 -31 -20 -33 -31 -5 -29 -13 12 -40 19 -12 35 -27 35 -32 0 -6 8 -10
19 -10 28 0 38 -19 46 -85 3 -33 13 -76 22 -97 14 -34 14 -42 -16 -159 -17
-67 -35 -127 -40 -132 -12 -12 -27 22 -48 113 -8 36 -19 75 -24 88 -5 13 -9
32 -9 43 0 12 -9 32 -20 46 -11 14 -20 31 -20 38 0 22 -57 92 -93 114 -19 11
-46 22 -60 23 -33 3 -26 14 21 29 55 17 64 28 56 63 -12 57 -53 120 -94 144
-43 24 -81 28 -129 11 l-31 -11 0 -529 0 -529 190 0 c162 0 190 2 190 15 0 19
2 19 47 0 26 -11 74 -15 179 -15 79 0 144 2 144 3 0 2 -9 30 -21 63 -34 100
-69 261 -68 316 2 50 2 48 10 -22 9 -77 54 -256 82 -323 l16 -37 1614 0 1615
1 0 64 c0 55 -3 67 -21 81 -15 11 -16 15 -5 11 12 -4 15 -2 11 9 -3 7 0 14 7
14 7 0 10 13 8 38 -2 20 -7 36 -11 35 -4 -2 -16 6 -27 17 -16 16 -19 28 -14
55 3 19 10 35 15 35 5 0 9 9 9 19 0 11 6 22 13 24 7 3 5 6 -5 6 -10 1 -17 4
-15 9 1 4 -2 8 -7 9 -5 1 -13 7 -17 15 -7 10 -9 10 -9 -2 0 -13 -1 -13 -10 0
-5 8 -10 10 -10 3 0 -15 -50 8 -50 23 0 16 -19 22 -53 18 -19 -2 -27 1 -24 9
3 7 10 11 16 10 6 -2 11 2 11 7 0 6 -7 10 -15 10 -21 0 -40 51 -23 61 7 4 9
11 5 15 -4 4 -2 13 4 20 8 10 6 13 -10 11 -12 -1 -21 -5 -21 -9 0 -4 -6 -5
-12 -3 -12 4 -98 -93 -98 -110 0 -6 -94 -136 -136 -187 -7 -10 -24 -35 -37
-56 -14 -20 -32 -43 -41 -51 -19 -16 -35 -6 -18 11 7 7 12 22 12 34 0 33 59
213 83 254 26 43 98 136 133 171 15 16 24 32 19 39 -4 7 1 13 14 17 23 6 28
19 9 26 -10 3 -10 7 1 20 7 9 18 14 23 11 15 -10 29 18 16 33 -12 15 -44 8
-72 -16 -10 -9 -17 -11 -15 -6 2 6 10 26 18 46 17 43 49 68 62 47 5 -7 9 -8 9
-2 0 41 -90 57 -169 29 -27 -9 -39 -10 -35 -3 5 8 1 9 -10 5 -10 -4 -29 -10
-42 -13 -13 -3 -21 -10 -18 -15 3 -5 -3 -6 -12 -2 -16 6 -15 7 2 20 13 9 14
13 3 13 -8 0 -28 13 -44 29 -35 32 -67 51 -89 51 -8 0 -27 5 -43 11 -26 10
-27 12 -8 19 12 5 28 3 40 -4 11 -7 40 -18 65 -26 25 -8 69 -27 99 -43 53 -28
56 -28 113 -16 40 9 58 18 58 29 1 12 3 12 14 -3 14 -18 14 -18 20 0 20 63 24
119 10 145 -15 30 -9 62 7 37 7 -11 9 -11 9 2 0 9 -7 19 -15 23 -8 3 -12 12
-9 21 8 20 -6 19 -36 -5 -26 -20 -60 -27 -60 -11 0 14 26 32 35 23 4 -4 4 3 1
15 -4 13 -2 25 6 30 14 8 48 57 48 69 0 3 -12 3 -26 0 -21 -6 -25 -4 -21 8 9
23 -3 46 -23 46 -10 0 -20 -3 -22 -7 -5 -13 -78 -73 -88 -73 -6 0 -10 5 -10
12 0 18 -30 47 -44 42 -7 -3 -13 7 -14 26 -2 20 3 33 13 36 22 9 19 24 -5 24
-22 0 -26 20 -9 51 7 15 6 28 -5 51 -9 17 -16 37 -16 45 0 7 -7 13 -16 13 -11
0 -14 6 -9 20 5 16 2 20 -14 20 -14 0 -21 6 -21 20 0 12 -11 31 -25 44 -18 16
-22 29 -18 47 3 13 2 20 -3 16 -4 -4 -16 12 -26 35 l-17 43 6 -66 c3 -37 1
-74 -4 -83 -8 -15 -13 -12 -37 22 -34 50 -46 131 -21 152 13 11 21 11 36 2 14
-9 19 -9 19 0 0 20 -31 47 -48 41 -14 -4 -14 -3 -3 5 13 9 13 17 2 54 -7 24
-17 52 -22 63 -4 11 -15 37 -23 58 -9 21 -20 36 -26 32 -6 -3 -7 0 -4 9 3 9 1
16 -5 16 -6 0 -11 6 -11 14 0 8 -8 14 -19 13 -14 -1 -21 -11 -25 -40 -4 -21
-4 -43 0 -49 3 -5 2 -20 -4 -31 -6 -12 -16 -67 -21 -122 -6 -55 -19 -158 -30
-230 -10 -71 -25 -173 -32 -225 -6 -52 -13 -102 -14 -110 -1 -8 -5 -31 -8 -50
-3 -19 -9 -70 -12 -112 l-6 -78 26 0 c14 0 41 -7 60 -14 39 -16 105 -64 105
-76 0 -4 -18 -5 -40 -3 -25 2 -40 0 -40 -7 0 -20 -39 9 -45 33 -9 36 -44 51
-134 57 -81 6 -85 8 -115 42 -17 20 -51 49 -76 64 -25 16 -51 35 -58 41 -17
17 -35 17 -26 1 4 -7 -5 -2 -19 11 -15 14 -30 21 -34 17 -14 -13 -13 -53 2
-96 20 -58 19 -132 -5 -209 -25 -77 -75 -174 -113 -215 -24 -28 -33 -31 -91
-32 -46 -1 -66 3 -70 12 -3 8 -12 11 -20 8 -10 -4 -17 2 -22 20 -3 14 -10 23
-15 20 -5 -3 -6 2 -3 10 11 29 -11 16 -31 -16 -10 -18 -33 -51 -50 -73 -57
-72 -103 -158 -145 -275 -24 -63 -49 -124 -58 -135 l-14 -20 7 20 c4 11 15 40
25 65 10 25 32 83 50 129 31 80 104 199 196 321 23 30 63 92 89 137 46 81 71
113 40 53 -34 -66 -8 -57 29 10 11 19 42 62 70 95 61 74 106 144 106 164 0 14
-1 14 -10 1 -9 -13 -10 -13 -10 0 0 8 -9 -3 -20 -25 -11 -22 -19 -33 -20 -25
0 8 -18 -12 -40 -45 -22 -33 -40 -56 -40 -52 0 4 6 18 14 30 20 30 128 278
124 282 -2 2 -23 -34 -47 -81 -45 -85 -64 -107 -36 -41 18 43 13 46 -19 12
-13 -14 -28 -25 -34 -25 -6 0 -12 -10 -14 -22 -3 -20 -8 -23 -40 -20 -34 3
-39 0 -51 -30 l-14 -33 -7 38 c-6 32 -11 38 -29 35 -12 -1 -28 1 -34 5 -7 5
-13 5 -13 0 0 -4 -5 -1 -10 7 -10 15 -10 15 -10 -27 0 -5 5 -9 10 -9 6 -1 13
-2 17 -3 10 -2 -39 -51 -50 -51 -6 0 -29 -19 -52 -41 l-42 -42 23 -35 c13 -19
24 -40 23 -46 0 -7 -3 -6 -6 2 -8 21 -25 13 -18 -9 5 -15 0 -27 -16 -42 -13
-12 -28 -21 -33 -19 -5 2 -21 -9 -36 -23 -30 -29 -61 -38 -72 -22 -3 6 -18 11
-33 12 -20 0 -25 -3 -22 -17 6 -20 -18 -25 -26 -5 -4 9 -7 9 -15 -1 -7 -11
-11 -11 -20 0 -6 8 -32 13 -69 13 -67 -1 -89 20 -45 42 35 19 140 14 146 -7 2
-8 4 -2 5 13 1 20 7 31 21 34 11 3 20 9 20 14 0 5 8 9 18 9 9 0 31 14 49 30
18 17 38 29 44 28 7 -2 19 10 27 25 12 25 12 31 -3 53 -11 17 -16 41 -13 72 2
38 -4 62 -35 123 -20 42 -37 83 -37 92 0 8 -7 20 -15 27 -8 7 -15 23 -15 35 0
12 -7 28 -15 35 -9 7 -25 33 -36 57 -15 32 -25 43 -42 43 -13 0 -42 14 -65 31
-37 27 -72 32 -57 9 3 -5 6 -34 6 -65 1 -45 4 -54 14 -45 27 23 59 7 83 -40
12 -25 27 -46 32 -48 6 -2 10 -9 10 -17 0 -7 7 -18 15 -25 12 -10 12 -14 0
-26 -7 -8 -16 -14 -20 -14 -6 0 -16 -7 -60 -45 -24 -22 -27 -28 -15 -35 8 -6
18 -10 23 -10 4 0 7 -4 7 -10 0 -24 -119 4 -141 33 -3 4 -10 7 -15 6 -5 -1
-32 1 -61 6 -37 5 -50 11 -46 21 3 8 16 12 34 10 16 -2 32 1 35 6 4 6 10 5 15
-3 8 -12 10 -12 18 0 11 17 -16 64 -33 58 -12 -4 -36 16 -36 31 0 5 19 12 42
15 28 4 51 15 72 37 30 30 30 31 6 22 -20 -8 -31 -6 -49 9 -26 21 -63 24 -110
8 -41 -14 -39 -27 6 -45 33 -14 35 -17 18 -26 -15 -9 -22 -7 -36 11 -19 23
-49 27 -67 9 -16 -16 -57 6 -89 49 -40 52 -34 130 22 299 51 153 61 172 114
221 29 26 44 33 78 33 45 0 63 -17 63 -60 0 -11 16 -37 35 -57 19 -20 35 -39
35 -43 0 -11 144 -79 187 -88 43 -9 93 6 130 41 17 15 20 23 12 34 -9 10 -6
15 12 22 20 7 21 10 8 16 -13 5 -14 11 -6 29 9 19 18 22 52 20 22 -2 53 4 69
12 16 7 37 14 48 14 23 0 24 19 1 27 -10 4 -25 14 -33 23 -16 18 -76 47 -152
74 -39 15 -46 20 -35 31 17 17 102 32 93 16 -8 -12 6 -15 17 -4 4 3 19 7 34 8
45 2 58 9 64 30 7 27 -2 34 -101 79 -78 36 -91 38 -165 36 -295 -9 -275 -10
-281 16 -3 13 -11 24 -18 24 -6 0 -3 7 8 15 24 18 46 62 40 79 -6 16 41 56 65
56 19 1 71 29 54 30 -20 0 -16 67 4 79 14 8 15 12 4 25 -22 27 -4 64 47 97
l47 31 113 -7 c138 -8 160 -12 179 -30 8 -9 24 -20 34 -26 18 -9 20 -18 15
-74 -5 -63 -5 -65 30 -97 19 -18 45 -54 56 -79 13 -28 36 -55 57 -69 20 -13
48 -31 63 -42 15 -10 31 -18 36 -18 26 0 69 -144 78 -260 4 -52 11 -103 16
-113 15 -29 29 -9 22 30 -5 26 -4 34 5 29 6 -4 11 -18 11 -31 0 -13 4 -26 9
-30 13 -7 3 59 -15 103 -12 29 -11 32 6 32 15 0 19 6 16 28 -2 15 -1 19 1 10
5 -22 23 -24 23 -3 0 8 11 17 25 21 27 7 95 82 95 105 0 8 7 24 15 35 14 20
14 52 0 74 -3 6 1 10 9 10 9 0 16 7 16 15 0 8 6 15 13 15 6 0 4 5 -5 11 -22
12 -24 33 -3 25 16 -6 36 28 29 49 -2 6 -6 46 -9 90 -7 102 -22 153 -54 188
-21 23 -23 29 -11 37 12 7 12 10 -4 16 -11 4 -16 14 -13 25 6 22 -3 25 -21 7
-9 -9 -12 -8 -12 8 0 36 18 43 57 23 40 -20 80 -59 75 -73 -2 -4 5 -6 14 -2
12 4 15 2 11 -9 -4 -8 -2 -17 4 -21 5 -3 9 -13 8 -22 -3 -29 1 -42 11 -42 30
0 -9 111 -46 133 -8 4 -14 14 -14 21 0 8 -9 16 -20 19 -11 3 -20 12 -20 21 0
37 -83 2 -104 -44 -3 -8 -4 -4 -1 10 2 14 5 35 5 46 0 17 5 20 23 17 12 -2 41
0 65 5 23 6 42 7 42 3 0 -9 41 -33 47 -28 2 3 -15 25 -39 50 -36 36 -46 42
-56 31 -7 -8 -12 -17 -12 -21 1 -5 -7 -10 -17 -12 -10 -2 -20 -7 -23 -11 -3
-5 -21 -5 -40 0 -33 7 -30 10 17 14 6 1 15 5 20 9 4 5 2 7 -6 5 -7 -1 -16 3
-19 11 -2 8 0 11 5 8 14 -9 61 46 83 97 19 46 19 46 0 46 -11 0 -20 5 -20 10
0 6 5 10 11 10 5 0 8 4 5 9 -3 5 1 14 9 21 8 7 12 17 8 23 -3 6 -1 7 5 3 13
-8 15 4 6 28 -3 9 -12 16 -19 16 -7 0 -16 6 -18 13 -3 6 -5 -1 -4 -18 0 -16 4
-35 9 -41 9 -12 -17 -28 -31 -20 -4 3 -18 -16 -31 -42 -17 -31 -26 -40 -28
-29 -2 10 -8 14 -14 11 -8 -5 -9 1 -4 17 4 13 9 31 10 40 1 9 12 28 24 44 24
30 28 45 12 45 -5 0 -10 -6 -10 -12 0 -9 -4 -8 -10 2 -7 12 -10 8 -10 -15 l-1
-30 -13 30 -13 30 1 -40 c1 -29 -3 -40 -14 -40 -11 0 -17 17 -23 63 -4 35 -14
73 -21 85 -8 12 -17 36 -20 52 l-7 30 18 -25 c10 -14 17 -28 15 -32 -1 -5 2
-8 7 -8 5 0 11 8 13 18 3 10 12 19 21 19 13 0 14 -4 5 -21 -11 -21 -11 -21 11
-2 20 18 20 20 5 38 -20 21 -13 23 17 6 17 -11 23 -10 26 0 3 6 10 9 16 5 7
-4 8 0 3 13 -5 10 -10 26 -13 36 -6 19 -39 30 -105 33 -43 3 -47 1 -38 -15 19
-36 10 -32 -16 6 -32 47 -46 59 -104 87 -95 48 -94 47 -73 64 17 14 17 14 -4
10 -13 -3 -25 -2 -28 3 -8 13 40 17 53 4 6 -7 9 -21 6 -31 -5 -15 -4 -16 5 -3
16 23 13 44 -9 58 -23 14 -27 42 -5 42 8 0 15 7 15 16 0 9 -3 14 -7 12 -5 -3
-22 -11 -40 -18 -18 -8 -34 -21 -37 -30 -3 -9 -4 -7 -3 5 1 11 -2 26 -6 33 -5
7 -4 12 2 12 6 0 11 -4 11 -10 0 -5 7 -7 16 -3 15 6 15 8 -2 20 -15 11 -20 11
-33 -1 -13 -13 -18 -13 -43 2 -16 9 -34 29 -41 44 -14 32 -25 35 -42 12 -11
-15 -12 -15 -18 5 -4 18 0 25 24 33 36 12 37 26 2 34 -16 5 -37 1 -57 -10 -30
-16 -33 -16 -76 6 -43 21 -57 22 -388 26 -259 3 -350 1 -373 -8 -23 -10 -33
-10 -42 -1 -6 6 -32 11 -57 11 -39 0 -49 -4 -60 -25 -13 -25 -30 -33 -30 -15
0 6 5 10 10 10 6 0 10 6 10 14 0 11 -14 15 -57 14 -51 -1 -61 -5 -83 -30z m36
-2510 c5 -24 7 -54 6 -67 -2 -12 3 -28 11 -35 7 -6 22 -38 33 -71 10 -33 25
-66 32 -74 7 -8 21 -25 29 -38 16 -24 16 -26 -23 -59 -31 -27 -44 -33 -64 -27
-14 3 -54 6 -89 7 l-63 0 5 50 c3 28 17 87 30 131 14 44 35 113 46 153 12 39
26 72 30 72 5 0 13 -19 17 -42z m679 -230 c0 -27 10 -29 51 -12 37 16 39 15
56 -6 10 -12 18 -28 18 -36 0 -8 3 -14 8 -14 10 0 31 -49 23 -54 -4 -3 -14 4
-21 15 -18 24 -31 24 -53 -1 -20 -24 -50 -26 -67 -5 -7 8 -18 15 -24 15 -6 0
-18 5 -26 10 -12 8 -11 13 10 32 l25 23 -24 3 c-13 2 -34 -2 -46 -8 -30 -16
-69 -9 -73 14 -3 11 0 16 7 12 6 -4 11 -3 11 2 0 12 66 31 100 29 16 -1 25 -8
25 -19z"/>
<path d="M500 2980 c0 -11 6 -20 13 -20 6 -1 2 -9 -10 -19 -13 -11 -23 -29
-23 -40 0 -12 -4 -21 -10 -21 -5 0 -10 16 -10 36 0 25 -7 43 -22 55 -26 23
-38 24 -38 4 0 -8 7 -15 15 -15 10 0 15 -11 15 -35 0 -19 10 -57 23 -83 21
-44 22 -45 25 -19 2 15 7 27 12 27 5 0 10 9 12 20 6 39 23 15 22 -30 -1 -25 0
-37 3 -27 5 21 33 23 33 2 0 -8 7 -15 15 -15 8 0 15 4 15 9 0 5 -7 16 -15 25
-9 8 -15 33 -15 57 0 28 -6 46 -17 55 -17 13 -17 13 0 14 20 0 22 11 5 28 -19
19 -48 15 -48 -8z"/>
<path d="M2651 2116 c-14 -16 -5 -60 10 -51 5 4 9 -3 9 -14 0 -28 -14 -27 -29
2 -9 16 -10 17 -5 2 19 -58 15 -118 -7 -112 -6 1 -16 -7 -22 -18 -7 -10 -18
-25 -24 -33 -7 -7 -13 -18 -13 -23 0 -6 -4 -8 -9 -5 -10 7 -21 -17 -21 -46 0
-25 22 -19 35 10 5 12 13 22 17 22 5 0 8 8 8 18 0 14 2 15 10 2 8 -12 10 -12
16 3 3 9 10 14 15 11 5 -3 9 0 9 5 0 6 7 11 15 11 10 0 15 10 15 31 0 27 2 30
15 19 13 -11 15 -7 15 23 0 41 -16 59 -23 25 -2 -13 -5 -5 -5 17 0 22 2 34 5
27 4 -10 8 -10 19 -1 15 12 20 5 27 -41 3 -23 4 -24 12 -5 5 11 12 23 17 26
15 10 -3 63 -27 81 -34 26 -69 32 -84 14z"/>
</g>
</svg>
