<?xml version="1.0" standalone="no"?>
<!DOCTYPE svg PUBLIC "-//W3C//DTD SVG 20010904//EN"
 "http://www.w3.org/TR/2001/REC-SVG-20010904/DTD/svg10.dtd">
<svg version="1.0" xmlns="http://www.w3.org/2000/svg"
 width="860.000000pt" height="900.000000pt" viewBox="0 0 860.000000 900.000000"
 preserveAspectRatio="xMidYMid meet">
<metadata>
Created by potrace 1.16, written by Peter Selinger 2001-2019
</metadata>
<g transform="translate(0.000000,900.000000) scale(0.100000,-0.100000)"
fill="#0EA5E9" stroke="none">
<path d="M1229 8586 c-100 -27 -182 -96 -244 -206 l-36 -64 4 -561 c4 -660 2
-642 99 -737 32 -32 82 -70 111 -85 48 -26 61 -28 162 -28 96 0 116 3 158 24
75 37 142 104 179 178 l32 66 8 416 c8 455 -1 698 -28 774 -22 64 -107 156
-176 189 -94 46 -184 57 -269 34z"/>
<path d="M5483 8590 c-97 -15 -224 -114 -266 -210 -25 -56 -35 -260 -36 -735
-1 -341 9 -474 38 -539 30 -67 95 -132 169 -168 62 -31 73 -33 172 -33 94 0
111 3 161 28 63 31 145 111 180 178 l24 44 -1 596 -1 597 -46 70 c-27 41 -66
86 -94 107 -76 55 -194 81 -300 65z"/>
<path d="M300 6058 c0 -821 3 -2023 7 -2671 l6 -1177 1896 2 1896 3 6 525 c3
289 7 526 7 528 1 1 26 2 55 2 86 0 89 2 125 98 18 48 32 90 32 95 0 4 -47 7
-105 7 l-105 0 0 415 0 415 436 0 435 0 57 39 c31 21 95 62 142 91 47 28 91
59 98 68 9 12 12 113 12 424 l0 408 470 0 470 0 0 -195 0 -195 165 0 165 0 0
1305 0 1305 -238 0 -239 0 -6 -182 c-10 -282 -37 -359 -169 -483 -223 -211
-542 -202 -748 22 -95 104 -139 214 -140 348 0 39 -3 121 -7 183 l-6 112
-1574 0 c-865 0 -1573 -3 -1573 -7 -1 -70 -23 -353 -31 -398 -6 -33 -27 -91
-47 -130 -163 -310 -595 -372 -843 -121 -105 105 -159 257 -159 447 0 31 -3
90 -6 132 l-7 77 -238 0 -239 0 0 -1492z m1240 -108 l0 -410 -450 0 -450 0 0
410 0 410 450 0 450 0 0 -410z m1180 0 l0 -410 -500 0 -500 0 0 410 0 410 500
0 500 0 0 -410z m1190 0 l0 -410 -500 0 -500 0 0 410 0 410 500 0 500 0 0
-410z m1190 0 l0 -410 -490 0 -490 0 0 410 0 410 490 0 490 0 0 -410z m1140 0
l0 -410 -470 0 -470 0 0 410 0 410 470 0 470 0 0 -410z m-4705 -1035 l0 -410
-445 0 -445 0 -3 413 -2 412 447 -2 448 -3 0 -410z m1185 0 l0 -415 -497 2
-498 3 -3 413 -2 412 500 0 500 0 0 -415z m1190 0 l0 -415 -500 0 -500 0 0
415 0 415 500 0 500 0 0 -415z m1190 0 l0 -415 -490 0 -490 0 0 415 0 415 490
0 490 0 0 -415z m-3565 -1030 l0 -410 -445 0 -445 0 -3 413 -2 412 447 -2 448
-3 0 -410z m1185 0 l0 -415 -497 2 -498 3 -3 413 -2 412 500 0 500 0 0 -415z
m1190 0 l0 -415 -500 0 -500 0 0 415 0 415 500 0 500 0 0 -415z m-2375 -975
l0 -355 -447 -3 -448 -2 0 360 0 360 448 -2 447 -3 0 -355z m1185 0 l0 -360
-500 0 -500 0 0 360 0 360 500 0 500 0 0 -360z m1190 0 l0 -360 -500 0 -500 0
0 360 0 360 500 0 500 0 0 -360z"/>
<path d="M5809 4703 c-1 -5 -4 -62 -8 -128 l-6 -119 -151 -61 c-398 -162 -694
-395 -923 -730 -230 -335 -335 -683 -335 -1110 0 -267 33 -459 119 -690 137
-371 433 -731 790 -965 168 -109 419 -213 632 -260 241 -54 639 -49 868 10
423 109 768 326 1043 655 408 488 553 1109 402 1723 -68 279 -183 514 -365
747 -71 90 -250 268 -340 336 -165 126 -367 236 -567 309 l-118 43 0 124 0
123 -520 0 c-286 0 -521 -3 -521 -7z m831 -587 c226 -52 405 -127 574 -240
279 -185 484 -447 612 -778 61 -157 74 -231 81 -463 9 -323 -13 -460 -113
-695 -82 -193 -180 -336 -344 -500 -222 -223 -487 -366 -810 -436 -69 -15
-128 -19 -310 -19 -208 0 -233 2 -335 27 -320 76 -576 223 -801 461 -309 326
-450 707 -430 1160 13 303 110 595 277 832 85 119 290 324 404 401 202 137
443 231 680 263 101 14 436 6 515 -13z"/>
<path d="M6219 3977 c-26 -14 -56 -42 -75 -69 l-31 -45 -6 -183 c-4 -101 -7
-459 -7 -797 l0 -613 638 0 c639 0 753 6 800 36 50 33 78 151 51 221 -13 35
-56 81 -89 96 -17 8 -181 13 -515 17 l-490 5 -5 595 -5 595 -28 56 c-24 50
-33 59 -86 83 -72 32 -96 32 -152 3z"/>
</g>
</svg>
