<?xml version="1.0" standalone="no"?>
<!DOCTYPE svg PUBLIC "-//W3C//DTD SVG 20010904//EN"
 "http://www.w3.org/TR/2001/REC-SVG-20010904/DTD/svg10.dtd">
<svg version="1.0" xmlns="http://www.w3.org/2000/svg"
 width="799.000000pt" height="800.000000pt" viewBox="0 0 799.000000 800.000000"
 preserveAspectRatio="xMidYMid meet">
<metadata>
Created by potrace 1.16, written by Peter Selinger 2001-2019
</metadata>
<g transform="translate(0.000000,800.000000) scale(0.100000,-0.100000)"
fill="#64748B" stroke="none">
<path d="M3942 6618 c-28 -24 -169 -156 -314 -294 -144 -137 -396 -376 -558
-529 -532 -503 -750 -713 -750 -725 0 -28 40 -30 531 -30 537 0 533 0 571 -50
17 -24 18 -72 18 -1243 0 -1312 -2 -1264 51 -1301 21 -14 79 -16 541 -16 l518
0 32 29 33 29 5 1245 c5 1354 1 1262 61 1293 23 12 114 14 531 14 277 0 509 4
517 9 22 14 5 45 -57 102 -109 102 -828 784 -1027 974 -110 105 -282 269 -383
363 -179 169 -183 172 -226 172 -37 0 -52 -7 -94 -42z"/>
<path d="M1340 2130 l0 -850 2655 0 2655 0 0 850 0 850 -240 0 -240 0 0 -585
0 -585 -2174 0 -2174 0 0 583 0 582 -241 3 -241 2 0 -850z"/>
</g>
</svg>
