<?xml version="1.0" standalone="no"?>
<!DOCTYPE svg PUBLIC "-//W3C//DTD SVG 20010904//EN"
 "http://www.w3.org/TR/2001/REC-SVG-20010904/DTD/svg10.dtd">
<svg version="1.0" xmlns="http://www.w3.org/2000/svg"
 width="980.000000pt" height="980.000000pt" viewBox="0 0 980.000000 980.000000"
 preserveAspectRatio="xMidYMid meet">
<metadata>
Created by potrace 1.16, written by Peter Selinger 2001-2019
</metadata>
<g transform="translate(0.000000,980.000000) scale(0.100000,-0.100000)"
fill="#0EA5E9" stroke="none">
<path d="M4876 9648 c-9 -68 -32 -238 -51 -378 -19 -140 -82 -622 -140 -1070
-244 -1882 -305 -2332 -316 -2344 -19 -21 -146 79 -1139 894 -626 513 -915
750 -950 774 -12 9 -13 8 -4 -4 6 -8 188 -231 405 -495 682 -829 809 -984 999
-1221 171 -213 270 -347 270 -364 0 -5 -11 -11 -25 -14 -30 -8 -854 -118
-1950 -261 -703 -92 -1401 -184 -1822 -241 -68 -9 -123 -20 -123 -24 0 -4 21
-10 48 -13 26 -3 146 -20 267 -36 278 -38 784 -105 2360 -311 628 -82 1188
-158 1228 -166 28 -6 28 -6 11 -32 -62 -95 -1105 -1387 -1527 -1892 -72 -85
-137 -164 -146 -175 -32 -39 67 40 724 580 1173 964 1356 1110 1376 1088 9
-11 82 -556 373 -2798 42 -319 92 -695 111 -835 19 -140 35 -261 35 -267 0 -7
4 -13 9 -13 4 0 16 55 25 123 9 67 32 237 51 377 19 141 75 570 125 955 227
1750 319 2437 331 2456 17 28 142 -70 1319 -1035 415 -341 762 -624 770 -630
28 -21 -134 180 -865 1069 -693 844 -820 1005 -799 1024 12 11 735 108 2499
336 415 53 1140 150 1368 181 26 4 47 10 47 14 0 10 -257 45 -2055 280 -1354
177 -1808 237 -1843 245 l-23 6 23 40 c42 74 217 293 1023 1274 379 462 613
749 639 785 15 20 -3 5 -304 -246 -334 -278 -820 -674 -1240 -1010 -460 -368
-550 -437 -556 -431 -9 9 -113 786 -349 2597 -36 278 -90 686 -120 908 -30
221 -55 407 -55 412 0 6 -4 10 -9 10 -4 0 -16 -55 -25 -122z"/>
<path d="M6452 9159 c-7 -37 -26 -172 -42 -300 -52 -399 -65 -469 -89 -469 -5
0 -98 72 -207 159 -109 88 -200 158 -202 156 -2 -1 74 -96 167 -211 94 -114
169 -209 168 -211 -7 -7 -119 -24 -378 -58 -262 -35 -439 -62 -447 -69 -7 -8
21 -12 532 -81 143 -19 264 -39 269 -44 14 -14 -13 -52 -177 -255 -75 -93
-136 -173 -136 -178 0 -5 55 38 123 94 219 185 298 243 308 227 5 -8 9 -18 9
-22 0 -27 92 -676 103 -728 11 -52 14 -59 20 -39 3 14 29 194 57 400 28 206
54 378 58 381 14 14 53 -13 228 -153 98 -79 187 -149 198 -157 19 -14 19 -14
5 7 -9 12 -71 90 -140 173 -187 228 -192 237 -133 259 15 6 167 28 338 50 397
50 406 51 411 60 7 11 -396 75 -736 117 -73 9 -77 15 -38 65 90 116 199 250
252 311 33 37 58 70 55 72 -2 2 -100 -73 -218 -167 -186 -148 -215 -168 -222
-152 -4 11 -30 184 -58 385 -27 202 -54 384 -58 405 l-8 39 -12 -66z"/>
</g>
</svg>
