<?xml version="1.0" standalone="no"?>
<!DOCTYPE svg PUBLIC "-//W3C//DTD SVG 20010904//EN"
 "http://www.w3.org/TR/2001/REC-SVG-20010904/DTD/svg10.dtd">
<svg version="1.0" xmlns="http://www.w3.org/2000/svg"
 width="980.000000pt" height="986.000000pt" viewBox="0 0 980.000000 986.000000"
 preserveAspectRatio="xMidYMid meet">
<metadata>
Created by potrace 1.16, written by Peter Selinger 2001-2019
</metadata>
<g transform="translate(0.000000,986.000000) scale(0.100000,-0.100000)"
fill="white" stroke="none">
<path d="M4850 9852 c-14 -2 -38 -14 -55 -25 -48 -34 -343 -278 -680 -562
-170 -144 -690 -580 -1155 -970 -1885 -1582 -2855 -2406 -2913 -2474 -58 -69
-59 -150 -4 -223 45 -59 99 -88 163 -88 47 0 59 5 129 55 89 64 213 164 455
365 267 221 543 440 556 440 6 0 14 -21 18 -47 15 -108 176 -1754 326 -3333
216 -2271 246 -2566 286 -2779 32 -176 40 -181 279 -193 244 -12 5225 -11
5353 1 84 8 111 14 143 35 58 39 68 62 84 187 37 297 264 2654 500 5174 47
506 88 930 91 943 4 22 5 22 37 6 44 -23 120 -83 427 -339 301 -251 485 -399
585 -471 60 -42 76 -49 115 -48 75 1 149 54 191 136 29 58 20 92 -49 171 -142
165 -342 336 -2782 2388 -2002 1683 -1933 1625 -1971 1637 -44 13 -98 19 -129
14z m372 -744 c2107 -1764 2772 -2332 2808 -2399 10 -17 -6 -188 -276 -3039
-80 -844 -180 -1912 -224 -2373 -43 -462 -81 -842 -85 -845 -13 -13 -1073 -20
-3066 -21 l-2026 -1 -6 37 c-6 38 -77 781 -332 3478 -74 787 -165 1735 -201
2109 -55 563 -63 681 -52 691 7 7 423 356 923 776 501 421 1074 902 1275 1071
201 169 491 412 645 542 154 129 285 235 292 235 6 1 153 -117 325 -261z"/>
<path d="M4701 7090 c-420 -53 -864 -298 -1143 -630 -407 -482 -534 -1081
-351 -1655 45 -144 156 -366 240 -485 82 -113 238 -279 348 -367 437 -350 926
-477 1437 -373 579 118 1090 551 1317 1117 58 145 87 244 102 348 15 105 15
448 0 553 -34 238 -164 531 -342 773 -83 114 -293 319 -409 401 -207 147 -487
259 -760 304 -109 18 -344 26 -439 14z m377 -420 c338 -37 622 -188 856 -455
203 -232 290 -443 316 -763 29 -364 -51 -679 -236 -925 -223 -297 -515 -483
-849 -542 -136 -24 -384 -24 -520 0 -441 77 -796 344 -979 736 -96 206 -120
330 -119 614 1 287 31 417 151 649 170 330 483 568 867 660 144 34 342 44 513
26z"/>
<path d="M4790 2923 c-85 -14 -211 -71 -305 -138 -134 -95 -282 -284 -321
-410 -20 -66 -29 -261 -16 -354 31 -220 251 -474 497 -573 170 -69 369 -64
547 15 178 79 340 248 420 439 64 153 62 376 -6 522 -119 259 -333 438 -587
491 -66 14 -172 18 -229 8z m200 -428 c100 -11 177 -62 220 -146 45 -86 49
-248 9 -354 -51 -138 -234 -213 -421 -174 -70 15 -115 39 -159 86 -126 132
-127 371 -2 504 52 56 98 80 173 89 54 7 73 6 180 -5z"/>
</g>
</svg>
